<svg height="48" viewBox="0 0 205 48" width="205" xmlns="http://www.w3.org/2000/svg" xmlns:xlink="http://www.w3.org/1999/xlink"><linearGradient id="a"><stop offset="0" stop-color="#00a99d"/><stop offset="1" stop-color="#0071bc"/></linearGradient><linearGradient id="b" x1="-400.492411%" x2="1603.13946%" xlink:href="#a" y1="50.24661%" y2="50.24661%"/><linearGradient id="c" x1="-207.851948%" x2="563.676429%" xlink:href="#a" y1="49.972233%" y2="49.972233%"/><linearGradient id="d" x1="-457.87242%" x2="656.718293%" xlink:href="#a" y1="50.066041%" y2="50.066041%"/><linearGradient id="e" x1="-618.026342%" x2="585.776798%" xlink:href="#a" y1="49.972233%" y2="49.972233%"/><linearGradient id="f" x1="-4592.98734%" x2="2926.97278%" xlink:href="#a" y1="49.982454%" y2="49.982454%"/><linearGradient id="g" x1="-1276.54637%" x2="727.085497%" xlink:href="#a" y1="49.99042%" y2="49.99042%"/><linearGradient id="h" x1="-905.711771%" x2="401.388009%" xlink:href="#a" y1="50.005322%" y2="50.005322%"/><linearGradient id="i" x1="-4700.46701%" x2="1330.77005%" xlink:href="#a" y1="49.786294%" y2="49.786294%"/><linearGradient id="j" x1="-1074.13097%" x2="244.574584%" xlink:href="#a" y1="50.066041%" y2="50.066041%"/><linearGradient id="k" x1="-1000.74296%" x2="113.847749%" xlink:href="#a" y1="49.972233%" y2="49.972233%"/><linearGradient id="l" x1="6.383509%" x2="1145.55292%" xlink:href="#a" y1="50.016733%" y2="50.016733%"/><linearGradient id="m" x1="-116.846311%" x2="1100.52428%" xlink:href="#a" y1="49.995122%" y2="49.995122%"/><linearGradient id="n"><stop offset="0" stop-color="#39b54a"/><stop offset=".1774" stop-color="#00a99d"/><stop offset=".3635" stop-color="#0071bc"/><stop offset=".5506" stop-color="#662d91"/><stop offset=".7677" stop-color="#ed1c24"/><stop offset="1" stop-color="#fbb03b"/></linearGradient><radialGradient id="o" cx="-379.724832%" cy="-207.55814%" gradientTransform="matrix(.769575 0 0 1 -.874981 0)" r="822.674419%" xlink:href="#n"/><radialGradient id="p" cx="-204.531136%" cy="9.456522%" gradientTransform="matrix(1 0 0 .296739 0 .066504)" r="1036.63004%" xlink:href="#n"/><radialGradient id="q" cx="-125.63876%" cy="-126.136364%" gradientTransform="matrix(1 0 0 .916193 0 -.105711)" r="438.75969%" xlink:href="#n"/><radialGradient id="r" cx="-82.378849%" cy="158.294307%" gradientTransform="matrix(.411061 0 0 1 -.485161 0)" r="921.636257%" xlink:href="#n"/><radialGradient id="s" cx="-422.615625%" cy="22.312139%" gradientTransform="matrix(1 0 0 .369942 0 .140579)" r="884.375%" xlink:href="#n"/><radialGradient id="t" cx="-36.701918%" cy="92.875318%" gradientTransform="matrix(1 0 0 .53828 0 .428824)" r="668.890898%" xlink:href="#n"/><radialGradient id="u" cx="-193.135266%" cy="-491.884817%" gradientTransform="matrix(.615137 0 0 1 -.743306 0)" r="740.837696%" xlink:href="#n"/><radialGradient id="v" cx="-74.942161%" cy="-159.141274%" gradientTransform="matrix(1 0 0 .909972 0 -.143272)" r="430.745814%" xlink:href="#n"/><radialGradient id="w" cx="-52.729231%" cy="-22.462942%" gradientTransform="matrix(1 0 0 .370582 0 -.141386)" r="870.769231%" xlink:href="#n"/><radialGradient id="x" cx="-91.762228%" cy="497.777778%" gradientTransform="matrix(.244565 0 0 1 -.693204 0)" r="1572.22222%" xlink:href="#n"/><radialGradient id="y" cx="-397.976127%" cy="94.398907%" gradientTransform="matrix(1 0 0 .515027 0 .457809)" r="750.66313%" xlink:href="#n"/><radialGradient id="z" cx="-364.331325%" cy="-31.730769%" gradientTransform="matrix(1 0 0 .957692 0 -.013425)" r="568.273092%" xlink:href="#n"/><radialGradient id="A" cx="-945.008969%" cy="72.197962%" gradientTransform="matrix(1 0 0 .3246 0 .487625)" r="1269.0583%" xlink:href="#n"/><radialGradient id="B" cx="-259.195265%" cy="205.272408%" gradientTransform="matrix(.967549 0 0 1 -.084111 0)" r="497.363796%" xlink:href="#n"/><radialGradient id="C" cx="-364.317164%" cy="-1062.67943%" gradientTransform="matrix(.779851 0 0 1 -.802041 0)" r="1354.06699%" xlink:href="#n"/><radialGradient id="D" cx="159.740537%" cy="-79.119472%" gradientTransform="matrix(1 0 0 .459895 0 -.427328)" r="1806.92703%" xlink:href="#n"/><radialGradient id="E" cx="19.012487%" cy="32.83666%" gradientTransform="matrix(1 0 0 .791596 0 .068433)" r="100.507664%" xlink:href="#n"/><radialGradient id="F" cx="33.198954%" cy="-136.624398%" gradientTransform="matrix(1 0 0 .524051 0 -.650262)" r="913.386051%" xlink:href="#n"/><radialGradient id="G" cx="-66.936964%" cy="4.631861%" gradientTransform="matrix(1 0 0 .865423 0 .006233)" r="196.386085%" xlink:href="#n"/><radialGradient id="H" cx="-160.34782%" cy="-231.417625%" gradientTransform="matrix(.629633 0 0 1 -.593875 0)" r="542.145594%" xlink:href="#n"/><radialGradient id="I" cx="-202.679214%" cy="-47.763158%" gradientTransform="matrix(1 0 0 .803947 0 -.093641)" r="463.175123%" xlink:href="#n"/><radialGradient id="J" cx="-144.292061%" cy="49.389358%" gradientTransform="matrix(1 0 0 .926449 0 .036326)" r="534.944738%" xlink:href="#n"/><radialGradient id="K" cx="-177.450431%" cy="-50.009266%" gradientTransform="matrix(1 0 0 .597169 0 -.201453)" r="609.812931%" xlink:href="#n"/><radialGradient id="L" cx="-387.093306%" cy="-433.333333%" gradientTransform="matrix(.523327 0 0 1 -1.845169 0)" r="1096.89922%" xlink:href="#n"/><radialGradient id="M" cx="-67.16489%" cy="773.330504%" gradientTransform="matrix(.195102 0 0 1 -.540609 0)" r="1672.98097%" xlink:href="#n"/><radialGradient id="N" cx="-214.715521%" cy="-407.757405%" gradientTransform="matrix(.552237 0 0 1 -.961417 0)" r="718.476728%" xlink:href="#n"/><radialGradient id="O" cx="-17.874802%" cy="23.159664%" gradientTransform="matrix(1 0 0 .675621 0 .075125)" r="140.797845%" xlink:href="#n"/><radialGradient id="P" cx="15.638554%" cy="32.696092%" gradientTransform="matrix(1 0 0 .791596 0 .06814)" r="107.980427%" xlink:href="#n"/><g fill="none"><g transform="translate(82.048 14.976)"><path d="m.8064 13.5296c-.2176 0-.3968-.0768-.5376-.2176-.1536-.1408-.2304-.32-.2304-.5376 0-.2048.0768-.384.2304-.5376.1536-.1408.3328-.2176.5376-.2176h6.0544c.2048 0 .3968.0768.5376.2176.1536.1408.2304.32.2304.5376s-.0768.384-.2304.5376c-.1536.1408-.3328.2176-.5376.2176z" fill="url(#b)"/><path d="m12.1344 18.8672c0 .2176-.0768.384-.2176.5376-.1408.1408-.32.2176-.5376.2176s-.3968-.0768-.5376-.2176c-.1536-.1408-.2304-.32-.2304-.5376v-12.1344c0-.2048.0768-.384.2304-.5376.1536-.1408.3328-.2176.5376-.2176s.384.0768.5376.2176c.1408.1408.2176.32.2176.5376v.8192c1.2288-1.0496 2.496-1.5744 3.7888-1.5744 1.4592 0 2.7136.5248 3.7504 1.5616.256.256.512.576.7936.9472.2816-.3712.5376-.6912.8064-.9472 1.0368-1.0368 2.2912-1.5616 3.7504-1.5616s2.7136.5248 3.7504 1.5616 1.5488 2.2784 1.5488 3.7504v7.5776c0 .2176-.0768.384-.2176.5376-.1408.1408-.32.2176-.5376.2176s-.384-.0768-.5376-.2176c-.1408-.1408-.2176-.32-.2176-.5376v-7.5776c0-1.0496-.3712-1.9456-1.1264-2.6752-.7424-.7424-1.6384-1.1264-2.6624-1.1264-1.0368 0-1.9328.3712-2.6752 1.1264-.7424.7424-1.1136 1.6384-1.1136 2.6752v7.5776c0 .2176-.0768.384-.2304.5376-.1536.1408-.3328.2176-.5376.2176-.2176 0-.384-.0768-.5376-.2176-.1408-.1408-.2176-.32-.2176-.5376v-7.5776c0-1.0496-.3712-1.9456-1.1136-2.6752-.7424-.7424-1.6384-1.1264-2.6752-1.1264s-1.9328.3712-2.6752 1.1264c-.7424.7424-1.1136 1.6384-1.1136 2.6752z" fill="url(#c)"/><path d="m44.2368 17.1392c-1.6384 1.6512-3.4048 2.4704-5.2992 2.4704-1.8816 0-3.4944-.6656-4.8256-1.9968s-1.9968-2.944-1.9968-4.8256.6656-3.4944 1.9968-4.8256 2.944-1.9968 4.8256-1.9968 3.4944.6656 4.8256 1.9968 1.9968 2.944 1.9968 4.8256v6.0672c0 .2176-.0768.384-.2176.5376-.1408.1408-.32.2176-.5376.2176s-.3968-.0768-.5376-.2176c-.1536-.1408-.2304-.32-.2304-.5376zm-5.2992-9.6512c-1.4592 0-2.7136.5248-3.7504 1.5616s-1.5616 2.2912-1.5616 3.7504.5248 2.7136 1.5616 3.7504 2.2912 1.5616 3.7504 1.5616 2.7136-.5248 3.7504-1.5616 1.5488-2.2784 1.5488-3.7504-.512-2.7264-1.5488-3.7504c-1.0368-1.0496-2.2912-1.5616-3.7504-1.5616z" fill="url(#d)"/><path d="m47.7184 6.7328c0-.2048.0768-.384.2176-.5376.1408-.1408.32-.2176.5376-.2176.2048 0 .384.0768.5376.2176.1408.1408.2176.32.2176.5376v1.408c1.4976-1.4464 3.0976-2.1632 4.8-2.1632 1.7536 0 3.2384.6144 4.4544 1.856 1.2416 1.2288 1.8688 2.7264 1.8688 4.4672v6.5664c0 .2176-.0768.384-.2304.5376-.1536.1408-.3328.2176-.5376.2176s-.384-.0768-.5376-.2176c-.1408-.1408-.2176-.32-.2176-.5376v-6.5664c0-1.344-.4736-2.4704-1.408-3.392-.9472-.9472-2.0736-1.4208-3.392-1.4208s-2.4448.4736-3.392 1.4208c-.9344.9216-1.3952 2.048-1.3952 3.392v6.5664c0 .2176-.0768.384-.2176.5376-.1408.1408-.32.2176-.5376.2176s-.384-.0768-.5376-.2176c-.1408-.1408-.2176-.32-.2176-.5376v-12.1344z" fill="url(#e)"/><path d="m64.5504 2.688c0 .2816-.1024.5248-.2944.7168s-.4352.2944-.7168.2944-.512-.1024-.7168-.2944-.2944-.4352-.2944-.7168.1024-.512.2944-.7168c.2048-.2048.4352-.2944.7168-.2944s.5248.1024.7168.2944c.2048.2048.2944.4352.2944.7168zm-1.7664 4.0448c0-.2048.0768-.384.2176-.5376.1408-.1408.32-.2176.5376-.2176.2048 0 .3968.0768.5376.2176.1536.1408.2304.32.2304.5376v12.1344c0 .2176-.0768.384-.2304.5376-.1536.1408-.3328.2176-.5376.2176-.2176 0-.384-.0768-.5376-.2176-.1408-.1408-.2176-.32-.2176-.5376z" fill="url(#f)"/><path d="m73.3568 18.112c.2048 0 .3968.0768.5376.2176.1536.1408.2304.32.2304.5376s-.0768.384-.2304.5376c-.1536.1408-.3328.2176-.5376.2176-3.2 0-4.8-1.6-4.8-4.8v-7.3344h-1.2544c-.2176 0-.3968-.0768-.5376-.2176-.1536-.1408-.2304-.32-.2304-.5376 0-.2048.0768-.384.2304-.5376.1536-.1408.3328-.2176.5376-.2176h1.2544v-5.1072c0-.2048.0768-.384.2176-.5376.1408-.1408.32-.2176.5376-.2176.2048 0 .3968.0768.5376.2176.1536.1408.2304.32.2304.5376v5.1072h2.2784c.2048 0 .3968.0768.5376.2176.1536.1408.2304.32.2304.5376s-.0768.384-.2304.5376c-.1536.1408-.3328.2176-.5376.2176h-2.2784v7.3344c0 2.1888 1.088 3.2896 3.2768 3.2896z" fill="url(#g)"/><path d="m80 18.8544-4.928-11.8144c-.0384-.1024-.0512-.2048-.0512-.3072 0-.2048.0768-.384.2304-.5376.1536-.1408.3328-.2176.5376-.2176s.384.0768.5376.2176c.0768.0768.128.1792.1792.3072l4.3264 10.3552 4.3264-10.3552c.0512-.128.1152-.2432.2048-.3328.128-.128.3072-.192.5248-.192.2048 0 .384.0768.5376.2176.1408.1408.2176.32.2304.5376 0 .0768-.0128.1664-.0512.2688l-7.5008 17.9456c-.0384.1152-.1024.2048-.1664.2816-.1536.1536-.3328.2304-.5504.2304s-.384-.0768-.5376-.2176c-.1408-.1408-.2176-.32-.2176-.5376 0-.1024.0128-.192.0512-.2688z" fill="url(#h)"/><path d="m90.432 18.3552c0 .3584-.128.6528-.3712.896-.2304.2432-.5376.3712-.8832.3712-.3584 0-.6528-.128-.896-.3712s-.3712-.5504-.3712-.896c0-.3584.128-.6528.3712-.8832.2432-.2432.5504-.3712.896-.3712.3584 0 .6528.128.8832.3712.2432.2304.3712.5248.3712.8832z" fill="url(#i)"/><path d="m104.2688 16.6528c.2048 0 .384.0768.5376.2304.1408.1536.2176.3328.2176.5376s-.0768.3968-.2304.5504c-.6144.5248-1.3056.9344-2.0608 1.216s-1.5488.4224-2.3936.4224c-1.8816 0-3.4944-.6656-4.8256-1.9968s-1.9968-2.944-1.9968-4.8256.6656-3.4944 1.9968-4.8256 2.944-1.9968 4.8256-1.9968c.832 0 1.6384.1408 2.3936.4224s1.4464.6912 2.048 1.216c.0768.0768.1408.1664.192.2688s.0768.2176.0768.3328c0 .2176-.0768.384-.2176.5376-.1408.1408-.32.2176-.5376.2176-.192 0-.3584-.064-.4864-.1792-.9856-.8704-2.1504-1.3056-3.4688-1.3056-1.4592 0-2.7136.5248-3.7504 1.5616s-1.5488 2.2784-1.5488 3.7504.512 2.7264 1.5488 3.7504c1.0368 1.0368 2.2912 1.5616 3.7504 1.5616.64 0 1.2544-.1152 1.856-.3584.6016-.2304 1.1392-.5504 1.6128-.9472.128-.0896.2816-.1408.4608-.1408z" fill="url(#j)"/><path d="m119.8336 12.8c0 1.8816-.6656 3.4944-1.9968 4.8256s-2.944 1.9968-4.8256 1.9968-3.4944-.6656-4.8256-1.9968-1.9968-2.944-1.9968-4.8256.6656-3.4944 1.9968-4.8256 2.944-1.9968 4.8256-1.9968 3.4944.6656 4.8256 1.9968 1.9968 2.944 1.9968 4.8256zm-6.8224-5.312c-1.4592 0-2.7136.5248-3.7504 1.5616s-1.5616 2.2912-1.5616 3.7504.5248 2.7136 1.5616 3.7504 2.2912 1.5616 3.7504 1.5616 2.7136-.5248 3.7504-1.5616 1.5488-2.2784 1.5488-3.7504-.512-2.7264-1.5488-3.7504c-1.0368-1.0496-2.2912-1.5616-3.7504-1.5616z" fill="url(#k)"/></g><g transform="translate(50.944 15.232)"><path d="m.1152.8192c0-.2048.0768-.384.2176-.5248s.32-.2176.5248-.2176.384.0768.5248.2176.2048.32.2048.5248v8.1536h10.3936v-8.1536c0-.2048.0768-.384.2176-.5248s.32-.2176.5248-.2176.3712.0768.5248.2176c.1408.1408.2176.32.2176.5248v17.792c0 .2048-.0768.384-.2176.5248s-.32.2176-.5248.2176-.384-.0768-.5248-.2176-.2176-.32-.2176-.5248v-8.1536h-10.3936v8.1536c0 .2048-.0768.384-.2048.5248-.1408.1408-.32.2176-.5248.2176s-.384-.0768-.5248-.2176-.2176-.32-.2176-.5248z" fill="url(#l)"/><path d="m28.0576 18.6112c0 .2048-.0768.384-.2176.5248-.1536.1408-.3328.2176-.5376.2176s-.384-.0768-.5248-.2176-.2176-.32-.2176-.5248v-1.3952c-1.4848 1.4336-3.0592 2.1504-4.7488 2.1504-1.7152 0-3.1872-.6016-4.4288-1.8176-1.216-1.216-1.8176-2.7008-1.8176-4.4416v-6.6432c0-.2048.0768-.384.2176-.5248s.32-.2176.5248-.2176.384.0768.5248.2176.2176.32.2176.5248v6.6432c0 1.3184.4608 2.4448 1.3824 3.3664.96.9344 2.0736 1.3952 3.3664 1.3952 1.3056 0 2.4192-.4608 3.3536-1.3952.9344-.9216 1.3952-2.048 1.3952-3.3664v-6.6432c0-.2048.0768-.384.2176-.5248s.32-.2176.5248-.2176.384.0768.5376.2176.2176.32.2176.5248v12.1472z" fill="url(#m)"/></g><path d="m33.3568 30.2592c.0512.0256.1152.0512.1664.0768.064.0256.1408.0384.2176.0384.3584 0 .6528-.2944.6528-.6656 0-.2304-.1152-.4224-.2816-.5504-.0512-.0256-.1024-.0512-.1536-.0768-.6784-.3456-1.3952-.7552-2.112-1.2416-.7424-.512-1.4208-1.0496-2.0224-1.6256-.0256-.0384-.064-.0768-.1024-.1024-.1152-.0896-.2432-.1408-.3968-.1408-.3584 0-.6528.2944-.6528.6656 0 .1408.0384.2688.1152.3712.0512.0768.1152.1408.1792.1792.6528.6272 1.3696 1.2032 2.1632 1.7408.7552.5248 1.5104.96 2.2272 1.3312z" fill="url(#o)"/><path d="m16.2944 26.9952.0768.192c.1152.1792.32.3072.5504.3072.3584 0 .6656-.2944.6656-.6656 0-.064-.0128-.128-.0384-.192-.0128-.0512-.0384-.1024-.064-.1536-1.3184-2.9824-2.0224-6.2976-2.0736-9.8816v-.0768c.0128-.0384.0128-.0896.0128-.1408 0-.0256 0-.0384-.0128-.064-.0384-.3456-.3072-.6016-.6528-.6016-.3072 0-.5504.2048-.64.4864-.0128.064-.0256.128-.0256.192 0 .0512.0128.1024.0128.1536v.0896c.0768 3.7376.8064 7.2192 2.1888 10.3552z" fill="url(#p)"/><path d="m18.5728 28.608c-.0256-.0512-.0512-.1024-.0768-.1408-.1152-.1664-.3072-.2688-.5248-.2688-.3584 0-.6528.2944-.6528.6656 0 .0896.0128.1664.0512.2432.0256.0512.064.1152.0896.1664 1.7024 2.9696 4.0576 5.568 7.0016 7.744.0512.0384.0896.0768.1408.1024.0896.0512.2048.0896.32.0896.3584 0 .6528-.2944.6528-.6656 0-.1792-.0768-.3456-.192-.4736-.0512-.0384-.1024-.0768-.1408-.1024-2.816-2.0736-5.0432-4.544-6.6688-7.36z" fill="url(#q)"/><path d="m24.0768 12.3392c-.0256-.0256-.0384-.0384-.064-.064-1.1136-1.1008-2.5856-1.6896-4.1472-1.664-2.048.0256-3.8272 1.1264-4.8384 2.7648-.0768.0768-.1408.192-.1792.3072-.0128.064-.0256.1152-.0256.1792 0 .3712.2944.6784.6656.6784.2048 0 .3968-.1024.512-.256.0384-.0512.0768-.1152.1024-.1792.7936-1.28 2.176-2.1504 3.7888-2.176h.064c1.2544 0 2.3808.512 3.2128 1.3568.0384.0384.0896.0896.128.1408.1152.1024.256.1536.4224.1536.3712 0 .6656-.3072.6656-.6784 0-.1152-.0384-.2304-.0896-.3328-.064-.0896-.128-.1664-.2176-.2304z" fill="url(#r)"/><path d="m24.32 15.3088c.1024.3712.1536.7424.1664 1.1392.0512 3.2896.9216 6.1568 2.6112 8.5632.0384.1024.1152.192.192.2688.1152.0896.256.1536.4096.1536.3584 0 .6528-.2944.6528-.6656 0-.128-.0384-.2304-.0896-.3328-.0384-.0512-.064-.0896-.1024-.1408-1.5616-2.1888-2.3424-4.8-2.3936-7.872-.0128-.4992-.0768-.9856-.2048-1.4592-.0128-.0768-.0384-.1408-.0512-.2176-.1024-.2304-.3328-.384-.6016-.384-.3584 0-.6528.2944-.6528.6656 0 .0256 0 .064.0128.0896.0128.0768.0256.1408.0512.192z" fill="url(#s)"/><path d="m14.0288 8.7168c.0384-.0256.064-.0384.0896-.064.1408-.1152.2304-.2944.2304-.4992 0-.3712-.2944-.6656-.6528-.6656-.1152 0-.2176.0256-.3072.0768-.0512.0384-.1152.0768-.1664.128-2.6496 2.0736-4.3392 5.3504-4.288 8.9984v.1408.0512c0 .0256 0 .064.0128.0896.0384.32.32.576.64.576.3456 0 .6272-.2688.6528-.6144v-.0384c0-.0256 0-.0512-.0128-.0768v-.1408c-.0384-3.2384 1.4592-6.1312 3.8016-7.9616z" fill="url(#t)"/><path d="m29.9008 44.5312c-.0512-.0256-.1024-.0512-.1536-.064-2.048-.832-4.2112-1.9584-6.336-3.392-.0512-.0512-.128-.1024-.2048-.1408s-.1664-.0512-.256-.0512c-.3584 0-.6528.2944-.6528.6656 0 .2048.0896.3712.2304.4992.0512.0256.0896.064.1408.0896 2.2016 1.4976 4.4544 2.6624 6.5792 3.5328.064.0384.1408.0768.2176.0896.0384.0128.0768.0128.128.0128.3584 0 .6528-.2944.6528-.6656 0-.256-.1408-.4736-.3456-.576z" fill="url(#u)"/><path d="m13.4016 32.6272c1.984 3.2 4.4672 5.824 7.1168 7.936.0512.0384.1152.0896.1664.128.0896.0512.2048.0896.32.0896.3584 0 .6528-.2944.6528-.6656 0-.1792-.064-.3328-.1792-.448-.0512-.0384-.1024-.0768-.1536-.1152-2.5472-2.0224-4.928-4.544-6.8224-7.616-.0256-.0512-.0512-.1024-.0896-.1408-.1152-.1536-.3072-.256-.512-.256-.3584 0-.6528.2944-.6528.6656 0 .0896.0128.1792.0512.256.0384.0512.0768.1152.1024.1664z" fill="url(#v)"/><path d="m13.2096 29.5808c-1.3696-2.7904-2.3552-5.9648-2.7648-9.5744 0-.0384 0-.0896-.0128-.128-.064-.2944-.32-.5248-.64-.5248-.3584 0-.64.2816-.6528.64v.0256c0 .064.0128.1152.0256.1664.4224 3.7504 1.4464 7.04 2.8544 9.9328.0256.064.0512.1152.0896.1792.1152.1664.32.2816.5376.2816.3584 0 .6528-.2944.6528-.6656 0-.0896-.0128-.1664-.0512-.2432 0-.0384-.0256-.064-.0384-.0896z" fill="url(#w)"/><path d="m24.5376 6.3872c-1.3952-.6528-2.9568-1.024-4.5824-1.024h-.1664c-1.28.0256-2.5216.2688-3.6608.6912-.064.0128-.128.0384-.192.0768-.2048.1152-.3456.3328-.3456.576 0 .3712.2944.6656.6528.6656.0512 0 .1152-.0128.1664-.0256s.0896-.0256.128-.0512c1.0112-.384 2.112-.6016 3.264-.6272 1.4976-.0256 2.9312.3072 4.2112.896.0384.0256.0896.0512.128.064.064.0256.1408.0384.2176.0384.3584 0 .6528-.2944.6528-.6656 0-.2176-.1024-.4096-.2688-.5376-.0512-.0256-.128-.0512-.2048-.0768z" fill="url(#x)"/><path d="m29.6832 16.8448c.064.2944.3328.512.64.512.3456 0 .6272-.2688.6528-.6272v-.0512c0-.0384 0-.064-.0128-.1024 0-.0768-.0128-.1536-.0128-.2304-.0512-3.2-1.4464-6.08-3.6352-8.1024-.0512-.064-.1152-.128-.192-.1664-.0896-.0512-.2048-.0896-.32-.0896-.3584 0-.6528.2944-.6528.6656 0 .1664.064.3072.1536.4224.0512.0384.1024.0896.1408.128 1.9328 1.7664 3.1616 4.3136 3.2 7.168 0 .064 0 .128.0128.2048 0 .0384-.0128.064-.0128.1024.0256.064.0256.1152.0384.1664z" fill="url(#y)"/><path d="m30.2464 19.9168c.6528 1.8688 1.8816 3.3792 3.776 4.672.4992.3456.9984.6272 1.4848.8832.064.0256.1152.064.1792.0896s.1408.0384.2048.0384c.3584 0 .6528-.2944.6528-.6656 0-.2304-.1152-.4224-.2816-.5504-.0384-.0256-.0896-.0512-.1408-.0768-.448-.2304-.9088-.512-1.3696-.8192-1.6896-1.152-2.752-2.4576-3.3152-4.1088 0-.0128-.0128-.0256-.0128-.0384-.1024-.2304-.3328-.3968-.6016-.3968-.3584 0-.6528.2944-.6528.6656 0 .0384 0 .064.0128.1024.0128.064.0384.1408.064.2048z" fill="url(#z)"/><path d="m33.9328 11.2768c.0128.0512.0256.1024.0512.1408.5376 1.5232.8448 3.1616.8704 4.8768.0128 1.1264.2048 1.92.6656 2.5984.0384.0896.0896.1536.1664.2176.1152.1024.2688.1664.4352.1664.3584 0 .6528-.2944.6528-.6656 0-.128-.0384-.2304-.0896-.3328-.0384-.0384-.064-.0896-.0896-.128-.32-.4608-.4224-1.0112-.4352-1.8816-.0256-1.8304-.3584-3.5968-.9472-5.2352-.0128-.0768-.0384-.1536-.0768-.2176-.1152-.2048-.32-.3328-.5632-.3328-.3584 0-.6528.2944-.6528.6656 0 .0384 0 .0896.0128.128z" fill="url(#A)"/><path d="m26.7136 3.072c.064.0512.128.0768.2048.1024 2.3936 1.28 4.4032 3.2128 5.8112 5.568.0256.064.064.128.1024.1792.1152.1536.2944.2432.4992.2432.3584 0 .6528-.2944.6528-.6656 0-.0768-.0128-.1408-.0384-.2048-.0256-.0896-.0768-.1664-.1408-.2432-1.5232-2.5344-3.712-4.6336-6.3104-6.0288-.064-.0384-.128-.064-.192-.1024-.064-.0256-.128-.0384-.192-.0384-.3584 0-.6528.2944-.6528.6656-.0128.2048.0896.3968.256.5248z" fill="url(#B)"/><path d="m22.6432 46.7712c-.064-.0384-.1408-.0768-.2048-.128-.6144-.3712-1.2416-.7552-1.856-1.1776-.0768-.0512-.1536-.1024-.2304-.1536-.0768-.0256-.1536-.0512-.2432-.0512-.3584 0-.6656.2944-.6656.6656 0 .2048.0896.3712.2176.4992.0512.0384.1024.0768.1664.1024.6656.448 1.3184.8576 1.984 1.2544.0512.0384.1152.064.1664.1024.0768.0256.1536.0512.2432.0512.3584 0 .6528-.2944.6528-.6656 0-.192-.0896-.3712-.2304-.4992z" fill="url(#C)"/><path d="m5.0432 20.8256c-.064-.3584-.3968-.5888-.7552-.5376-.3584.064-.5888.3968-.5376.7552.1664 1.0112.3968 1.9968.7168 3.1232.0768.2816.3456.4736.6272.4736.064 0 .1152-.0128.1792-.0256.3456-.1024.5504-.4608.448-.8064-.2944-1.0752-.512-2.0224-.6784-2.9824z" fill="url(#D)"/><path d="m14.9376 42.3936c-.64-1.7536-1.4336-3.7248-1.8944-4.288-.512-.6272-3.136-1.0368-4.8768-1.3056-.7296-.1152-1.4208-.2176-2.0096-.3456-2.6368-.5376-2.6496-3.584-2.56-5.0944-.6016-.5248-.7808-1.0752-.8064-1.472-.0384-.4864.1152-.9088.2944-1.2288-.32-.2816-.6528-.704-.7296-1.2672-.0256-.2048.0384-.4096.1792-.5504.2816-.2944.64-.9088.6912-1.2544-.1792-.128-.6528-.32-.9728-.448-.3968-.1536-.8576-.3328-1.2544-.5632-.4736-.2688-.7808-.6912-.8704-1.216-.1664-.8832.3072-1.792.5632-2.0992.128-.1536.256-.3328.3968-.5376.3072-.4608.6656-1.0368.9856-1.6.3328-.576.6528-1.152.896-1.6.192-.3584.3456-.64.448-.8064.0512-.1024.192-.64-.2688-2.9568l-.0384-.192c-.1408-.7552.2816-2.7776 2.0224-5.2352 2.496-3.1744 5.0176-5.0688 7.04-6.1952.1536-.0896.2944-.1664.4352-.2432.0256 0 .0512-.0128.0768-.0128.384 0 .6912.3072.6912.6912 0 .2304-.1152.4352-.2944.5632-.0512.0256-.1024.0512-.1536.0768-1.9072 1.0496-4.3648 2.8416-6.7584 5.9008-1.6384 2.304-1.8304 3.9296-1.792 4.2112l.0384.1664c.4352 2.1632.4608 3.2896.1152 3.8784-.0896.1536-.2432.4224-.4224.768-.448.8192-1.0496 1.9072-1.6256 2.816.064.2304.128.4608.192.704.1024.3456-.1024.704-.448.8064-.064.0128-.1152.0256-.1792.0256-.192 0-.3584-.0768-.4864-.2176-.1024.2176-.2176.576-.1664.8448.0256.1408.0896.2432.2304.3072.32.1792.7168.3328 1.088.4864.9088.3584 1.7664.6912 1.8048 1.5104.0256.6912-.4352 1.5104-.8064 1.9968.1536.2432.4608.4352.5504.4864.192.0896.32.2816.3584.4864s-.0384.4224-.192.576c-.1024.1024-.384.4608-.3584.8064.0256.2432.2048.4864.5504.7296.192.128.2944.3456.2816.576-.1024 1.7024-.0384 3.456 1.1648 3.968-.1792-.32-.3584-.64-.5376-.96-.0256-.064-.064-.1152-.0896-.1792-.064-.1664-.064-.3712.0384-.5504.1664-.3328.576-.448.896-.2816.0768.0384.1408.0896.192.1536.0384.0768.0896.1536.128.2432.3584.6656.7168 1.2928 1.088 1.9072.192.0256.384.064.576.0896 1.9712.3072 3.5072.576 4.544 1.0112-3.776-4.9792-6.4384-11.4816-6.5664-19.7888-.1152-7.616 5.888-13.8752 13.4016-13.9904h.2048c7.424 0 13.4912 6.0416 13.5936 13.5808.0256 2.1888.6528 3.5072 2.2656 4.7232.0384.0256.0896.064.128.0896.128.1152.2048.2944.2048.4864 0 .3712-.2944.6656-.6528.6656-.1024 0-.2048-.0256-.2816-.064-.064-.0512-.128-.0896-.192-.1408-1.92-1.4592-2.7392-3.1616-2.7776-5.7472-.1024-6.8224-5.5936-12.288-12.3008-12.288h-.192c-6.7968.1024-12.224 5.7728-12.1216 12.6592.2304 16.192 10.5088 25.2672 19.4688 29.4528.0512.0128.1024.0384.1536.064.1792.1152.3072.32.3072.5632 0 .3712-.2944.6656-.6528.6656-.064 0-.128-.0128-.192-.0256-.064-.0256-.1152-.0512-.1792-.0896-3.904-1.8304-8.0512-4.5696-11.5584-8.3584.4096.9216.8448 2.0352 1.216 3.072.512.4736 1.0368.9216 1.5872 1.3696.0512.0384.1024.0768.1408.1152.1152.1152.1792.2816.1792.4608 0 .3712-.2944.6656-.6528.6656-.1152 0-.2176-.0256-.3072-.0768-.0512-.0384-.1024-.0896-.1536-.128.064.2304.1152.4096.1408.5376.064.3584-.1664.6912-.512.768-.0384.0128-.0896.0128-.128.0128-.3072 0-.576-.2176-.64-.5248-.0768-.384-.384-1.3568-.768-2.4576z" fill="url(#E)"/><path d="m8.9472 34.7392c.1024 0 .2176-.0256.3072-.0768.32-.1664.4352-.5632.256-.8832-.0128-.0256-1.3056-2.4064-2.6112-6.1696-.1152-.3456-.4864-.5248-.832-.3968-.3456.1152-.5248.4864-.3968.832 1.3312 3.8656 2.6368 6.272 2.7008 6.3616.128.2176.3456.3328.576.3328z" fill="url(#F)"/><path d="m37.248 35.8656c-7.2448-1.8944-12.2496-5.7088-14.8736-11.3536-1.9584-4.2112-1.792-7.936-1.7792-7.9872.0256-.3584-.256-.6656-.6144-.6784-.3584-.0256-.6656.256-.6784.6144-.0128.1664-.2048 4.0448 1.8816 8.5504 1.92 4.16 6.208 9.6256 15.744 12.1216.0512.0128.1152.0256.1664.0256.2816 0 .5504-.192.6272-.4864.0768-.3584-.128-.7168-.4736-.8064z" fill="url(#G)"/><path d="m34.1888 37.696c-.0256-.0128-.064-.0256-.1024-.0384-1.7408-.6016-4.16-1.6256-6.592-3.2896-.8192-.5632-1.6-1.1648-2.3168-1.8048-.0512-.064-.1152-.128-.192-.1664-.1024-.064-.2176-.1024-.3456-.1024-.3712 0-.6784.3072-.6784.6784 0 .128.0384.256.1024.3584s.1664.192.2816.2432c.7552.6656 1.5616 1.2928 2.4192 1.8816 2.496 1.7024 4.9792 2.7776 6.8096 3.4176.0768.0512.1664.0768.2688.0896.0256 0 .0512.0128.0768.0128.3584 0 .6528-.2944.6528-.6656.0128-.2688-.1536-.512-.384-.6144z" fill="url(#H)"/><path d="m22.9248 22.5408c1.3824 3.9424 3.9552 6.656 6.5664 8.4864.0384.0256.0896.064.128.0896.1024.0512.2048.0896.32.0896.3712 0 .6784-.3072.6784-.6784 0-.1664-.064-.32-.1664-.448-.0768-.0768-.1536-.1408-.256-.192-2.4064-1.7024-4.7744-4.224-6.0544-7.8464-.0128-.0768-.0384-.1536-.0768-.2176-.1152-.2048-.3328-.3456-.5888-.3456-.3712 0-.6784.3072-.6784.6784v.0384c.0128.128.064.2432.128.3456z" fill="url(#I)"/><path d="m22.208 19.8144c.1152.2176.3328.3584.6016.3584.3712 0 .6656-.2944.6784-.6656v-.0128c0-.0768-.0128-.1536-.0384-.2176-.1408-.8832-.2432-1.8176-.256-2.816-.0256-1.8176-1.4848-3.264-3.2896-3.2384-1.792.0256-3.2128 1.5232-3.1872 3.328.0128 1.088.1024 2.1376.2304 3.1616-.0128.0512-.0128.0896-.0128.1408 0 .1152.0256.2176.0768.3072.1152.2176.3328.3712.6016.3712.3712 0 .6656-.2944.6784-.6528v-.0256c0-.064-.0128-.1408-.0384-.192-.1408-1.0112-.2304-2.0608-.2432-3.1232-.0128-1.088.8448-1.984 1.92-1.9968h.0256c1.0624 0 1.9328.8576 1.9456 1.9456.0128 1.024.1024 1.984.2432 2.8928-.0128.0384-.0128.0768-.0128.1152 0 .128.0256.2304.0768.32z" fill="url(#J)"/><path d="m18.7392 22.144c-.1152-.2048-.3328-.3328-.576-.3328-.3712 0-.6784.3072-.6784.6784v.0128c0 .1152.0256.2176.0768.3072.8832 3.2128 2.4192 6.0928 4.5952 8.5888.0512.0896.1152.1664.2048.2304.1152.0768.2432.128.384.128.3712 0 .6784-.3072.6784-.6784 0-.1152-.0256-.2176-.0768-.3072-.0512-.1024-.128-.192-.2176-.256-2.0224-2.3296-3.4688-5.0176-4.288-8.0128v-.0128c0-.1408-.0384-.256-.1024-.3456z" fill="url(#K)"/><path d="m32.2432 31.168c-.064-.0128-.128-.0256-.192-.0256-.3712 0-.6784.3072-.6784.6784 0 .2048.0896.384.2432.512.0768.064.1536.1024.2432.128 2.112 1.1136 3.9808 1.6768 4.9152 1.92.064.0128.128.0256.1792.0512.0256 0 .0512.0128.0768.0128.3584 0 .6528-.2944.6528-.6656 0-.2688-.1664-.512-.3968-.6144-.0512-.0128-.1152-.0256-.1792-.0384-.8704-.2176-2.6496-.768-4.6464-1.8304-.0512-.064-.128-.1024-.2176-.128z" fill="url(#L)"/><path d="m15.0784 2.2528h.0384c.128-.0512.2432-.0896.3584-.128.6656-.2176 1.0624-.2816 1.0752-.2816s.0384 0 .0512-.0128c2.432-.5632 5.2096-.6144 7.872.1792.1024.0256.192.064.2944.0896h.0512c.3712 0 .6784-.3072.6784-.6784 0-.2688-.1536-.4992-.384-.6144-.0512-.0128-.1152-.0384-.1664-.0512-2.9056-.8704-5.952-.832-8.6016-.2176-.128.0256-.5888.1024-1.2672.32-.128.0384-.256.0896-.3968.1408-.1664.128-.2816.32-.2816.5504-.0128.3968.2944.704.6784.704z" fill="url(#M)"/><path d="m35.0464 42.432c-.0768 0-.1536-.0128-.2304-.0384-3.3536-1.2544-5.6064-2.4192-7.9488-3.8016-.3072-.1792-.4096-.576-.2304-.8832s.576-.4096.8832-.2304c2.2656 1.344 4.4544 2.4832 7.744 3.712.3328.128.4992.4992.3712.8192-.0896.2688-.3328.4224-.5888.4224z" fill="url(#N)"/><path d="m36.8512 44.8384c-5.1712-1.9584-8.8704-3.9808-11.0208-5.312-.1024-.064-.192-.128-.2944-.192-.128-.0768-.256-.1664-.3968-.2432-.32-.2048-.5888-.384-.8192-.5376-7.3856-5.1712-11.3536-12.7488-11.4816-21.9136-.064-3.9936 3.0848-7.2704 7.0144-7.3216h.1024c3.8912 0 7.0656 3.1616 7.1296 7.1168.064 4.4672 1.8688 7.8464 5.504 10.3424.3456.2432.6912.4608 1.0368.6528.064.0384.1152.064.1792.1024.064.0256.1408.0384.2304.0384.3584 0 .6528-.2944.6528-.6656 0-.2176-.1024-.4096-.256-.5248-.0512-.0256-.1152-.064-.1664-.0896-.32-.1792-.6272-.384-.9472-.6016-3.3024-2.2656-4.864-5.2096-4.928-9.2672-.064-4.672-3.8272-8.4096-8.4224-8.4096h-.128c-4.6464.064-8.3712 3.9424-8.2944 8.6656.1536 10.7264 5.3376 17.9072 11.264 22.3744.0256.0256.192.1536.4736.3456 1.3824.9984 2.8032 1.856 4.1984 2.5856 2.2016 1.2032 5.1712 2.6496 8.9344 4.0704.0768.0256.1536.0384.2304.0384.256 0 .4992-.1536.6016-.4096.0896-.3456-.0768-.7168-.3968-.8448z" fill="url(#O)"/><path d="m14.9376 42.3936c-.64-1.7536-1.4336-3.7248-1.8944-4.288-.512-.6272-3.136-1.0368-4.8768-1.3056-.7296-.1152-1.4208-.2176-2.0096-.3456-2.6368-.5376-2.6496-3.584-2.56-5.0944-.6016-.5248-.7808-1.0752-.8064-1.472-.0384-.4864.1152-.9088.2944-1.2288-.32-.2816-.6528-.704-.7296-1.2672-.0256-.2048.0384-.4096.1792-.5504.2816-.2944.64-.9088.6912-1.2544-.1792-.128-.6528-.32-.9728-.448-.3968-.1536-.8576-.3328-1.2544-.5632-.4736-.2688-.7808-.6912-.8704-1.216-.1664-.8832.3072-1.792.5632-2.0992.128-.1536.256-.3328.3968-.5376.3072-.4608.6656-1.0368.9856-1.6.3328-.576.6528-1.152.896-1.6.192-.3584.3456-.64.448-.8064.0512-.1024.192-.64-.2688-2.9568l-.0384-.192c-.1408-.7552.2816-2.7776 2.0224-5.2352 2.496-3.1744 5.0176-5.0688 7.04-6.1952.1536-.0896.2944-.1664.4352-.2432.0256 0 .0512-.0128.0768-.0128.384 0 .6912.3072.6912.6912 0 .2304-.1152.4352-.2944.5632-.0512.0256-.1024.0512-.1536.0768-1.9072 1.0496-4.3648 2.8416-6.7584 5.9008-1.6384 2.304-1.8304 3.9296-1.792 4.2112l.0384.1664c.4352 2.1632.4608 3.2896.1152 3.8784-.0896.1536-.2432.4224-.4224.768-.448.8192-1.0496 1.9072-1.6256 2.816.064.2304.128.4608.192.704.1024.3456-.1024.704-.448.8064-.064.0128-.1152.0256-.1792.0256-.192 0-.3584-.0768-.4864-.2176-.1024.2176-.2176.576-.1664.8448.0256.1408.0896.2432.2304.3072.32.1792.7168.3328 1.088.4864.9088.3584 1.7664.6912 1.8048 1.5104.0256.6912-.4352 1.5104-.8064 1.9968.1536.2432.4608.4352.5504.4864.192.0896.32.2816.3584.4864s-.0384.4224-.192.576c-.1024.1024-.384.4608-.3584.8064.0256.2432.2048.4864.5504.7296.192.128.2944.3456.2816.576-.1024 1.7024-.0384 3.456 1.1648 3.968-.1792-.32-.3584-.64-.5376-.96-.0256-.064-.064-.1152-.0896-.1792-.064-.1664-.064-.3712.0384-.5504.1664-.3328.576-.448.896-.2816.0768.0384.1408.0896.192.1536.0384.0768.0896.1536.128.2432.3584.6656.7168 1.2928 1.088 1.9072.192.0256.384.064.576.0896 1.9712.3072 3.5072.576 4.544 1.0112-3.776-4.9792-6.4384-11.4816-6.5664-19.7888-.1152-7.616 5.888-13.8752 13.4016-13.9904h.2048c7.424 0 13.4912 6.0416 13.5936 13.5808.0256 2.1888.6528 3.5072 2.2656 4.7232.0384.0256.0896.064.128.0896.128.1152.2048.2944.2048.4864 0 .3712-.2944.6656-.6528.6656-.1024 0-.2048-.0256-.2816-.064-.064-.0512-.128-.0896-.192-.1408-1.92-1.4592-2.7392-3.1616-2.7776-5.7472-.1024-6.8224-5.5936-12.288-12.3008-12.288h-.192c-6.7968.1024-12.224 5.7728-12.1216 12.6592.2304 16.192 10.5088 25.2672 19.4688 29.4528.0512.0128.1024.0384.1536.064.1792.1152.3072.32.3072.5632 0 .3712-.2944.6656-.6528.6656-.064 0-.128-.0128-.192-.0256-.064-.0256-.1152-.0512-.1792-.0896-3.904-1.8304-8.0512-4.5696-11.5584-8.3584.4096.9216.8448 2.0352 1.216 3.072.512.4736 1.0368.9216 1.5872 1.3696.0512.0384.1024.0768.1408.1152.1152.1152.1792.2816.1792.4608 0 .3712-.2944.6656-.6528.6656-.1152 0-.2176-.0256-.3072-.0768-.0512-.0384-.1024-.0896-.1536-.128.064.2304.1152.4096.1408.5376.064.3584-.1664.6912-.512.768-.0384.0128-.0896.0128-.128.0128-.3072 0-.576-.2176-.64-.5248-.0768-.384-.384-1.3568-.768-2.4576z" fill="url(#P)"/><g fill="#0d71ba" transform="translate(201.344 20.864)"><path d="m.096.1536c-.0192 0-.0384 0-.0576-.0192s-.0192-.0384-.0192-.0576 0-.0384.0192-.0576.0384-.0192.0576-.0192h1.2096c.0192 0 .0384 0 .0576.0192s.0192.0384.0192.0576 0 .0384-.0192.0576-.0384.0192-.0576.0192h-.5376v1.5936c0 .0192 0 .0384-.0192.0576s-.0384.0192-.0576.0192-.0384 0-.0576-.0192-.0192-.0384-.0192-.0576v-1.5936z"/><path d="m1.72963404.36868085v1.37770213c0 .01940425 0 .03880851-.01940425.05821276-.01940426.01940426-.03880851.01940426-.05821277.01940426-.01940425 0-.03880851 0-.05821276-.01940426-.01940426-.01940425-.01940426-.03880851-.01940426-.05821276v-1.66876596c0-.01940425 0-.03880851.01940426-.05821276.01940425-.01940426.03880851-.01940426.05821276-.01940426.01940426 0 .03880851.01940426.05821277.03880851l.77617021 1.55234043.77617021-1.55234043c.01940426-.01940425.03880851-.03880851.05821277-.03880851.01940425 0 .03880851 0 .05821276.01940426.01940426.01940425.01940426.03880851.01940426.05821276v1.66876596c0 .01940425 0 .03880851-.01940426.05821276-.01940425.01940426-.03880851.01940426-.05821276.01940426-.01940426 0-.03880851 0-.05821277-.01940426-.01940425-.01940425-.01940425-.03880851-.01940425-.05821276v-1.37770213l-.71795745 1.41651064c-.01940425.01940425-.03880851.03880851-.05821277.03880851-.03880851 0-.05821276-.01940426-.05821276-.03880851z"/></g></g></svg>